<?xml version="1.0" encoding="UTF-8"?>
<svg width="451px" height="451px" viewBox="0 0 451 451" version="1.1" xmlns="http://www.w3.org/2000/svg" xmlns:xlink="http://www.w3.org/1999/xlink">
    <defs></defs>
    <g id="Page-1" stroke="none" stroke-width="1" fill="none" fill-rule="evenodd">
        <g id="Favicon" transform="translate(-0.481052, -0.183518)" fill="#9FA3A8">
            <path d="M152.754344,284.524665 L152.739751,284.539258 L190.225959,322.025466 L364.661466,147.589959 L327.175258,110.103751 L190.240552,247.038458 L123.682507,180.480413 L86.1962989,217.966621 L152.754344,284.524665 Z M226.32388,0.265372568 L399.441173,81.4082924 C399.441173,194.925939 399.441173,258.255099 399.441173,271.395774 C399.441173,291.106786 363.152148,341.111885 342.133379,363.451897 C278.076964,431.534911 232.281124,450.265373 226.32388,450.265373 C220.366635,450.265373 169.809684,420.20519 115.373622,363.451897 C91.2388531,338.289761 53.2065867,290.332489 53.2065867,271.395774 C53.2065867,258.771297 53.2065867,195.442136 53.2065867,81.4082924 L226.32388,0.265372568 Z" id="Combined-Shape"></path>
        </g>
    </g>
</svg>